<svg xmlns="http://www.w3.org/2000/svg" viewBox="0 0 600 400"><defs><style>.cls-1{fill:#a11d15;}</style></defs><title>logored</title><g id="Layer_2" data-name="Layer 2"><g id="Layer_1" data-name="Layer 1"><path class="cls-1" d="M354.25,43.42a9.24,9.24,0,1,1-9.19-9.31A9.19,9.19,0,0,1,354.25,43.42Z"/><path class="cls-1" d="M314.92,24.55A35.59,35.59,0,0,0,317.79,28c2.13,2,2.86,4.14,1.83,7.08a21.26,21.26,0,0,0,.52,15.47c2.9,7.11,7.5,12.75,14.42,16.37A20.28,20.28,0,0,0,351,68.41c3.09-1,6.05-2.48,9.07-3.74,1.25-.52,2.47-1.13,3.75-1.57a2.7,2.7,0,0,1,3.23.88c1.28,1.62,2.6,3.2,4,5-6,5.66-12.29,10.6-21,11.41a51.36,51.36,0,0,1-19.94-1.6C318.07,75,310.88,66.62,308.27,54.39c-2-9.5,0-18.57,4-27.25.41-.86.8-1.73,1.2-2.59Z"/><path class="cls-1" d="M220.35,25c0-.14,0-.29,0-.43H230c0,.15,0,.29,0,.44Z"/><path class="cls-1" d="M314.94,107.13c10.5-5.62,21-11.22,32.6-14.35a61.46,61.46,0,0,1,25.93-.91c21.63,3.45,39.56,13.54,54,29.91a30.75,30.75,0,0,1,5.12,7.78q2.07,4.59,4.07,9.2a6.08,6.08,0,0,1,.41,1.38,1.23,1.23,0,0,1-1,1.59c-5,1.34-10,2-15.16.72a12.24,12.24,0,0,1-7.51-5.2c-9.1-14-22.15-22.15-38.24-25.52-17.11-3.59-33.38-1.12-48.52,7.85a58.4,58.4,0,0,0-18.07,17c-4,5.69-7.61,11.64-11.38,17.48-.91,1.41-1.82,2.83-2.65,4.28-1,1.79-.88,2.85.52,4.33a8.7,8.7,0,0,0,1.65,1.38,23.36,23.36,0,0,1,6.17,6,115.07,115.07,0,0,1,22.82,47.82,118.31,118.31,0,0,1,1.78,37.68,117,117,0,0,1-22.93,58.67c-17.95,23.88-41.79,38.63-70.9,45a113.07,113.07,0,0,1-33.62,2.25,118,118,0,0,1-39.18-10.45c-15.72-7.1-29.65-16.66-41.07-29.72-.52-.59-1-1.19-1.66-1.93a5.53,5.53,0,0,1,1-.29c6.22-.43,12.44-.9,18.66-1.23,2.63-.14,5.28,0,7.92.09a20.74,20.74,0,0,1,10.65,3.23c2.62,1.69,5.23,3.41,7.73,5.27A70.53,70.53,0,0,0,199.77,340c27.8,2.73,52.72-4.67,74.61-22A72.7,72.7,0,0,0,296,289.69c5.93-13.54,9.74-27.57,10.14-42.39.48-17.4-3.77-33.73-11.68-49.15-1.53-3-3.2-5.9-4.93-8.78a59.53,59.53,0,0,0-24.72-22.76c-1.11-.56-2.41-.91-3-2.47a11.09,11.09,0,0,1,1.55-.92,28.26,28.26,0,0,0,12.15-9.48c2-2.59,3.83-5.31,5.72-8,.83-1.18,1.61-2.38,2.42-3.56l.48-.61,0,0c.2-.3.4-.61.59-.92v0l.43-.56,0,0,.57-.94v0l.42-.57,0,0,.57-.94,0,0,.4-.59,0,0a4.57,4.57,0,0,0,1.13-.76c2.78-3.4,5.5-6.84,8.27-10.24a198.09,198.09,0,0,1,15.88-16.64c.73-.71,1.42-1.45,2.12-2.18l0,0Z"/><path class="cls-1" d="M148.5,170.7c1-.52,1.73-.84,2.39-1.21a100.7,100.7,0,0,1,35.58-12.31,104.17,104.17,0,0,1,39.29,2c7.88,1.88,13.9,6.68,18.51,13.25A43.87,43.87,0,0,1,252,195.27c.07,1.12.07,2.24.07,3.36q0,38.87,0,77.74c0,3.12.51,4.19-4.12,4.24-4.79.05-9.57.78-14.36.95a31.56,31.56,0,0,1-7.11-.67,4.94,4.94,0,0,1-4.32-5.23c-.05-2.8-.26-5.59-.24-8.39.07-13.67.23-27.34.28-41q.06-13.31-.12-26.63c-.1-7.57-2.48-14.28-8-19.68a27.65,27.65,0,0,0-16-7.56A36.59,36.59,0,0,0,182.31,174,107,107,0,0,0,154,187.73a11.92,11.92,0,0,0-5.59,10.72c.09,20.24,0,40.47.09,60.71,0,4,.33,8,.39,12a25.31,25.31,0,0,1-.45,5,4.93,4.93,0,0,1-4.63,4.2,78.48,78.48,0,0,1-10.05.49c-4.51-.13-7.43-2.79-8.36-7.19a21.13,21.13,0,0,1-.48-3.8c-.19-9-.41-18.06-.46-27.09-.07-13.84.09-27.68,0-41.52-.16-16.55-.6-33.09-.8-49.64-.16-13.36.06-26.72,1.78-40a61.91,61.91,0,0,1,7.4-21.65c1.95-3.58,4.2-7,6.27-10.5a8.93,8.93,0,0,1,7.54-4.39,22.78,22.78,0,0,1,3.6.06c2.54.24,5.08.52,7.61.89a13.28,13.28,0,0,1,3.46.91,2.68,2.68,0,0,1,1.64,3.72A12.26,12.26,0,0,1,161.11,84c-7.36,9.72-11,20.8-12.33,32.79a134.87,134.87,0,0,0-.57,21.55c.51,9.82.67,19.66.3,29.49C148.48,168.67,148.5,169.52,148.5,170.7Z"/><path class="cls-1" d="M471.54,223.9v52.56c0,.56,0,1.12,0,1.68-.08,1.8-.29,2.34-2,2.39q-8.62.29-17.26.16a3.51,3.51,0,0,1-3.49-3.36,42,42,0,0,1-.46-5q-.33-28.08-.6-56.14c-.13-10.48-.32-20.95-.48-31.43a13.17,13.17,0,0,0-.07-1.67,1.65,1.65,0,0,0-1.75-1.61H444l-56.64,0h-.24c-3.58,0-4.47.92-4.47,4.6q0,14.88,0,29.76c0,4.48-.05,9,0,13.44.06,15.74,10.14,27.9,25.56,30.8,3.89.73,7.8.28,11.72.06,6.38-.36,12.78-.61,19.17-.7,3.65-.05,5.65,1.72,6.41,5.25a22.8,22.8,0,0,1,.15,10.23c-.91,3.74-2.79,5.25-6.59,5.44-12.7.64-25.4,1.28-38.12,1-8.44-.18-16.74-1.09-24.68-4.22a40,40,0,0,1-11.17-6.43c-7.92-6.61-11.36-15.21-11.25-25.39.1-9.12.22-18.23.2-27.35q0-19.2-.27-38.39c0-3.2-.3-6.39-.44-9.59a25.64,25.64,0,0,1,0-2.63,4.49,4.49,0,0,1,3.85-4.53,17.12,17.12,0,0,1,3.57-.32c11,.09,21.92.25,32.87.33q29.26.19,58.54.31c3.44,0,6.87-.24,10.31-.36a17.31,17.31,0,0,1,2.39,0c4.07.42,6.54,3,6.65,7.13.09,3.44.09,6.88.09,10.32Q471.56,202.07,471.54,223.9Z"/><path class="cls-1" d="M314.37,107.46c-.7.73-1.39,1.47-2.12,2.18a198.09,198.09,0,0,0-15.88,16.64c-2.77,3.4-5.49,6.84-8.27,10.24a4.57,4.57,0,0,1-1.13.76,18.76,18.76,0,0,1,.78-2,50,50,0,0,0,4.79-36.71,86.51,86.51,0,0,0-12.2-27.75,56.39,56.39,0,0,0-7.46-9,69.35,69.35,0,0,0-38.94-19.08c-16.21-2.37-31.09,1.33-45.09,9.41a49.14,49.14,0,0,0-4.28,2.64,5.27,5.27,0,0,1-5.45.51c-.51-.21-1-.4-1.54-.66a63.61,63.61,0,0,1-10.28-7.19,4.11,4.11,0,0,1,.67-.76,253.3,253.3,0,0,1,22.3-13.61A73,73,0,0,1,220.35,25H230c19.24,1.22,35.91,8.82,51.15,20.24,12.87,9.64,21.17,22.38,26.6,37.29a56.21,56.21,0,0,1,3.36,17.32c.07,1.92.27,3.83.47,5.73a15.89,15.89,0,0,0,.53,2.08Z"/><path class="cls-1" d="M286.61,137.82l-.57.94Z"/><path class="cls-1" d="M285.66,139.27l-.57.94Z"/><path class="cls-1" d="M284.7,140.71l-.59.92C284.31,141.33,284.51,141,284.7,140.71Z"/><path class="cls-1" d="M314.94,107.13l-.61.37Z"/><path class="cls-1" d="M287,137.25l-.4.59Z"/><path class="cls-1" d="M286.07,138.72l-.42.57Z"/><path class="cls-1" d="M285.12,140.17l-.43.56Z"/><path class="cls-1" d="M284.15,141.59l-.48.61Z"/></g></g></svg>